# xmcd
#
# Track frame offsets: 
#        150
#        13010
#        25255
#        38689
#        52386
#        64973
#        77025
#        88338
#        100285
#        114650
#        126188
#        138633
#        150349
#        164539
#        178623
#        189279
#        200260
#        210388
#        222590
#        234327
#
# Disc length: 3322 seconds
#
# Revision: 2
# Processed by: cddbd v1.5.2PL0 Copyright (c) Steve Scherf et al.
# Submitted via: ExactAudioCopy v0.95b4
#
DISCID=1d0cf814
DTITLE=Various Artist - Blues and Rhythm and Boogies
DYEAR=1900
DGENRE=
TTITLE0=Elmore James - Hand in Hand
TTITLE1=Howling Wolf  - Dog Me Around aka How Many More Years
TTITLE2=John Lee Hooker - House Rent Boogie
TTITLE3=Drifting Slim - You're an Old Lady
TTITLE4=Joe Hill Louis - Boogie in The Park
TTITLE5=Johny ""Guitar" Watson - Too Tired
TTITLE6=B.B. King - Mean Old Frisco
TTITLE7=Pee Wee Crayton - Poppa Stoppa
TTITLE8=Three Bits of Rhythm - Root Beer Sizzle Sazzle Sizzle 
TTITLE9=Saunders King - Going Mad
TTITLE10=Big Duke Henderson and His Orchestra - Hey Dr Kinsey
TTITLE11=The Great Gates - Central Rocks
TTITLE12=Little Willie Littefield - Love Me Tonight
TTITLE13=Rosco Gordon - Booted
TTITLE14=Lil Greenwood - Boogle All Night Long
TTITLE15=Young Jessie - Don't Happen No More
TTITLE16=Helen Humes - Real Fine Daddy
TTITLE17=Ike Turner - Twistin' the Strings
TTITLE18=Jennel Hawkins with Richard Berry and The Lockettes - The Mess 
TTITLE18=Around
TTITLE19=Little Johny Tailor - Stop Fooling Around
EXTD=
EXTT0=
EXTT1=
EXTT2=
EXTT3=
EXTT4=
EXTT5=
EXTT6=
EXTT7=
EXTT8=
EXTT9=
EXTT10=
EXTT11=
EXTT12=
EXTT13=
EXTT14=
EXTT15=
EXTT16=
EXTT17=
EXTT18=
EXTT19=
PLAYORDER=
